<svg xmlns="http://www.w3.org/2000/svg" xmlns:xlink="http://www.w3.org/1999/xlink" width="219px" height="188px" viewBox="0 0 219 188"><title>DC96008B-FB5C-4CB7-BAB7-C5434E0A0E4A</title><desc>Created with sketchtool.</desc><defs><path d="M94.2581441,0.047394958 C42.3183814,0.047394958 0.214627119,42.0182353 0.214627119,93.7940336 C0.214627119,145.569832 42.3183814,187.542269 94.2581441,187.542269 C146.197907,187.542269 188.301661,145.569832 188.301661,93.7940336 C188.301661,42.0182353 146.197907,0.047394958 94.2581441,0.047394958 Z" id="path-1"></path><path d="M94.2581441,0.047394958 C42.3183814,0.047394958 0.214627119,42.0182353 0.214627119,93.7940336 C0.214627119,145.569832 42.3183814,187.542269 94.2581441,187.542269 C146.197907,187.542269 188.301661,145.569832 188.301661,93.7940336" id="path-3"></path><linearGradient x1="50%" y1="0%" x2="50%" y2="100%" id="linearGradient-5"><stop stop-color="#4DC9FA" offset="0%"></stop><stop stop-color="#2598F3" offset="100%"></stop></linearGradient><path d="M94.2581441,0.047394958 C42.3183814,0.047394958 0.214627119,42.0182353 0.214627119,93.7940336 C0.214627119,145.569832 42.3183814,187.542269 94.2581441,187.542269 C146.197907,187.542269 188.301661,145.569832 188.301661,93.7940336 C188.301661,42.0182353 146.197907,0.047394958 94.2581441,0.047394958 Z" id="path-6"></path><linearGradient x1="50%" y1="0%" x2="50%" y2="100%" id="linearGradient-8"><stop stop-color="#FFFFFF" offset="0%"></stop><stop stop-color="#FFFFFF" offset="100%"></stop></linearGradient><path d="M94.2581441,0.047394958 C42.3183814,0.047394958 0.214627119,42.0182353 0.214627119,93.7940336 C0.214627119,145.569832 42.3183814,187.542269 94.2581441,187.542269 C146.197907,187.542269 188.301661,145.569832 188.301661,93.7940336" id="path-9"></path><path d="M94.2581441,0.047394958 C42.3183814,0.047394958 0.214627119,42.0182353 0.214627119,93.7940336 C0.214627119,145.569832 42.3183814,187.542269 94.2581441,187.542269 C146.197907,187.542269 188.301661,145.569832 188.301661,93.7940336" id="path-11"></path><linearGradient x1="50%" y1="0%" x2="50%" y2="100%" id="linearGradient-13"><stop stop-color="#335683" offset="0%"></stop><stop stop-color="#172B4C" offset="100%"></stop></linearGradient><polygon id="path-14" points="0.601861339 0.258698885 64.6353723 0.258698885 64.6353723 64.637989 0.601861339 64.637989"></polygon><linearGradient x1="50%" y1="0%" x2="50%" y2="100%" id="linearGradient-16"><stop stop-color="#FDDC4D" offset="0%"></stop><stop stop-color="#FBB726" offset="100%"></stop></linearGradient><linearGradient x1="50%" y1="0%" x2="50%" y2="100%" id="linearGradient-17"><stop stop-color="#69E3C2" offset="0%"></stop><stop stop-color="#38C28F" offset="100%"></stop></linearGradient></defs><g id="Page-1" stroke="none" stroke-width="1" fill="none" fill-rule="evenodd"><g id="freshservice-cheat-sheet" transform="translate(-192.000000, -1113.000000)"><g id="User-Management-" transform="translate(175.000000, 1099.000000)"><rect id="Rectangle-Copy-6" x="0" y="0" width="253" height="216"></rect><g id="Group-13" transform="translate(17.000000, 14.000000)"><g id="Group-4"><path d="M204,93.9991995 C204,145.914486 161.914486,188 110.0008,188 C58.085514,188 16,145.914486 16,93.9991995 C16,42.0839131 58.085514,0 110.0008,0 C161.914486,0 204,42.0839131 204,93.9991995" id="Fill-1" fill="#E0F6FF"></path><g id="Group-5" transform="translate(14.000000, 0.000000)"><mask id="mask-2" fill="white"><use xlink:href="#path-1"></use></mask><g id="Clip-4"></g><path d="M118.608392,51.288 C118.608392,51.288 146.817442,152.174807 79.567078,147.154975 L46.439222,104.915899 L87.8814763,54.0709412 L118.608392,51.288 Z" id="Fill-3" fill="#172B4C" mask="url(#mask-2)"></path></g><g id="Group-8" transform="translate(14.000000, 0.000000)"><mask id="mask-4" fill="white"><use xlink:href="#path-3"></use></mask><g id="Clip-7"></g><path d="M57.9903254,125.970613 L81.5064102,124.175992 L128.019631,138.376496 C148.788808,144.715151 162.798834,162.517672 162.798834,182.566664 L60.7852831,216.143975 L-2.97498814,163.590613 L4.48090169,153.953303 C16.9340797,137.851202 36.5196051,127.608765 57.9903254,125.970613" id="Fill-6" fill="url(#linearGradient-5)" mask="url(#mask-4)"></path></g><g id="Group-11" transform="translate(14.000000, 0.000000)"><mask id="mask-7" fill="white"><use xlink:href="#path-6"></use></mask><g id="Clip-10"></g><polygon id="Fill-9" fill="url(#linearGradient-8)" mask="url(#mask-7)" points="95.852311 152.584983 66.7046669 128.525235 66.7046669 82.5212857 90.1134381 82.5212857"></polygon></g><g id="Group-14" transform="translate(14.000000, 0.000000)"><mask id="mask-10" fill="white"><use xlink:href="#path-9"></use></mask><g id="Clip-13"></g><path d="M115.889034,80.9810084 C114.058297,101.627143 112.626381,118.085294 99.5101017,116.930924 C86.393822,115.774958 66.5616356,97.4439496 68.3923729,76.7978151 C70.2215085,56.1516807 82.3383305,40.3497479 95.4546102,41.5057143 C108.569288,42.6616807 117.719771,60.3348739 115.889034,80.9810084" id="Fill-12" fill="url(#linearGradient-8)" mask="url(#mask-10)"></path></g><g id="Group-17" transform="translate(14.000000, 0.000000)"><mask id="mask-12" fill="white"><use xlink:href="#path-11"></use></mask><g id="Clip-16"></g><path d="M120.707573,55.9118655 C122.557531,61.3021176 120.72359,67.3038824 116.120319,70.6807731 C111.529861,74.048084 107.258141,83.000437 89.4761237,79.4942185 C65.8142847,74.8272437 89.4344797,132.502622 48.0322678,144.640269 C20.9347932,152.585143 -27.8256051,140.940857 3.40264068,131.929429 C63.9739373,114.451025 20.9059627,56.8522857 90.2849797,41.3601008 C110.575251,36.8288403 118.031141,48.1122857 120.707573,55.9118655" id="Fill-15" fill="url(#linearGradient-13)" mask="url(#mask-12)"></path></g><g id="Group-32" transform="translate(0.000000, 13.000000)"><g id="Group-30"><path d="M96.9763971,78.0732321 C96.9763971,78.0732321 91.755565,67.5882321 87.4634847,74.3768036 C83.1698058,81.1637679 92.2255358,89.3344821 92.2255358,89.3344821" id="Fill-19" fill="#FFFFFF"></path><g id="Group-23" transform="translate(153.459854, 0.000000)"><mask id="mask-15" fill="white"><use xlink:href="#path-14"></use></mask><g id="Clip-22"></g><path d="M32.6186912,45.7945714 C39.9495964,45.7945714 45.8929686,39.8192143 45.8929686,32.4488571 C45.8929686,25.0768929 39.9495964,19.1031429 32.6186912,19.1031429 C25.2877861,19.1031429 19.3444139,25.0768929 19.3444139,32.4488571 C19.3444139,39.8192143 25.2877861,45.7945714 32.6186912,45.7945714 M16.5405745,51.9193929 C15.346465,50.9213571 14.2450708,49.8140357 13.2523774,48.6135 C12.5394285,47.7520714 11.4012679,47.3743929 10.3030708,47.56725 L5.1941365,48.4640357 C3.72028248,48.7227857 2.26401241,47.9192143 1.6901365,46.5306429 L0.846107299,44.4831429 C0.272231387,43.0913571 0.735808029,41.4858214 1.96188832,40.6211786 L6.20920949,37.6206429 C7.13636277,36.9665357 7.6510927,35.8688571 7.55038467,34.7358214 C7.48324599,33.9820714 7.4480781,33.2186786 7.4480781,32.4488571 C7.4480781,31.6774286 7.48324599,30.9156429 7.55038467,30.1618929 C7.6510927,29.02725 7.13636277,27.9311786 6.20920949,27.2770714 L1.96188832,24.2765357 C0.735808029,23.4102857 0.272231387,21.8063571 0.846107299,20.4145714 L1.6901365,18.3670714 C2.26401241,16.9768929 3.72028248,16.1733214 5.1941365,16.4320714 L10.3030708,17.3304643 C11.4012679,17.5233214 12.5394285,17.1456429 13.2523774,16.2842143 C14.2450708,15.0836786 15.346465,13.9763571 16.5405745,12.9783214 C17.397392,12.2615357 17.7730489,11.1156429 17.5812241,10.0131429 L16.6892387,4.87671429 C16.4318737,3.39332143 17.2311438,1.93082143 18.6122825,1.35385714 L20.6504212,0.505285714 C22.0331584,-0.0732857143 23.6285015,0.392785714 24.4917131,1.62546429 L27.4745891,5.89564286 C28.1251949,6.82778571 29.2169978,7.34689286 30.3439686,7.24403571 C31.0936839,7.17653571 31.8529905,7.14278571 32.6186912,7.14278571 C33.3859905,7.14278571 34.1452971,7.17653571 34.8934139,7.24403571 C36.0203847,7.34689286 37.1121876,6.82778571 37.7627934,5.89564286 L40.7472679,1.62546429 C41.608881,0.392785714 43.2058226,-0.0732857143 44.5885599,0.505285714 L46.6251,1.35385714 C48.0062387,1.93082143 48.8071073,3.39332143 48.5497423,4.87671429 L47.6561584,10.0131429 C47.4659321,11.1156429 47.8399905,12.2615357 48.696808,12.9783214 C49.8925161,13.9763571 50.9939102,15.0836786 51.9866036,16.2842143 C52.697954,17.1456429 53.8249248,17.5249286 54.9231219,17.3320714 C56.3889832,17.0733214 58.4431073,16.7133214 60.0528372,16.4304643 C61.5266912,16.1717143 62.9733701,16.9768929 63.547246,18.3670714 L64.3912752,20.4145714 C64.9651511,21.8063571 64.5015745,23.4102857 63.2770927,24.2765357 L59.028173,27.2770714 C58.1026182,27.9311786 57.5878883,29.02725 57.6885964,30.1618929 C57.755735,30.9156429 57.7893044,31.6774286 57.7893044,32.4488571 C57.7893044,33.2186786 57.755735,33.9820714 57.6885964,34.7358214 C57.5878883,35.8688571 58.1026182,36.9665357 59.028173,37.6206429 L63.2770927,40.6211786 C64.5015745,41.4858214 64.9651511,43.0913571 64.3912752,44.4831429 L63.547246,46.5306429 C62.9733701,47.9192143 61.5186985,48.7227857 60.043246,48.4640357 L54.9343117,47.56725 C53.8361146,47.3743929 52.697954,47.7520714 51.9866036,48.6135 C50.9939102,49.8140357 49.8925161,50.9213571 48.696808,51.9193929 C47.8399905,52.6345714 47.4659321,53.7804643 47.6561584,54.8845714 L48.5497423,60.021 C48.8071073,61.5027857 48.0062387,62.9668929 46.6251,63.54225 L44.5885599,64.3924286 C43.2058226,64.9693929 41.608881,64.5033214 40.7472679,63.2706429 L37.7627934,59.0004643 C37.1121876,58.0699286 36.0203847,57.5508214 34.8934139,57.6520714 C34.1452971,57.7195714 33.3859905,57.7533214 32.6186912,57.7533214 C31.8529905,57.7533214 31.0936839,57.7195714 30.3439686,57.6520714 C29.2169978,57.5508214 28.1251949,58.0699286 27.4745891,59.0004643 L24.4917131,63.2706429 C23.6285015,64.5033214 22.0331584,64.9693929 20.6504212,64.3924286 L18.6122825,63.54225 C17.2311438,62.9668929 16.4318737,61.5027857 16.6892387,60.021 L17.5812241,54.8845714 C17.7730489,53.7804643 17.397392,52.6345714 16.5405745,51.9193929" id="Fill-21" fill="url(#linearGradient-16)" mask="url(#mask-15)"></path></g><path d="M4.07531825,54.4863214 C1.82457372,54.4863214 0.000639416058,52.6509643 0.000639416058,50.3881071 L0.000639416058,35.9479286 C0.000639416058,33.6850714 1.82457372,31.8513214 4.07531825,31.8513214 C6.32606277,31.8513214 8.15159562,33.6850714 8.15159562,35.9479286 L8.15159562,50.3881071 C8.15159562,52.6509643 6.32606277,54.4863214 4.07531825,54.4863214" id="Fill-24" fill="url(#linearGradient-17)"></path><path d="M23.6582343,54.4863214 C21.4074898,54.4863214 19.5835555,52.6509643 19.5835555,50.3881071 L19.5835555,22.0397143 C19.5835555,19.77525 21.4074898,17.9415 23.6582343,17.9415 C25.9089788,17.9415 27.7345117,19.77525 27.7345117,22.0397143 L27.7345117,50.3881071 C27.7345117,52.6509643 25.9089788,54.4863214 23.6582343,54.4863214" id="Fill-26" fill="url(#linearGradient-17)"></path><path d="M43.1645803,54.4863214 C40.9138358,54.4863214 39.0883029,52.6509643 39.0883029,50.3881071 L39.0883029,6.16275 C39.0883029,3.89989286 40.9138358,2.06453571 43.1645803,2.06453571 C45.4153248,2.06453571 47.2392591,3.89989286 47.2392591,6.16275 L47.2392591,50.3881071 C47.2392591,52.6509643 45.4153248,54.4863214 43.1645803,54.4863214" id="Fill-28" fill="url(#linearGradient-17)"></path></g></g></g></g></g></g></g></svg>